# Blender 4.1.1
# www.blender.org
mtllib lowpoly-button.mtl
o Cube
v 0.522997 0.191650 -0.533479
v 0.522997 -0.144204 -0.533479
v 0.559715 0.170849 0.559460
v 0.559715 -0.165006 0.559460
v -0.545230 0.171348 -0.586893
v -0.545230 -0.164506 -0.586893
v -0.560790 0.177929 0.552728
v -0.549207 -0.149709 0.563475
v -0.502977 -0.167927 -0.600000
v -0.502977 0.167927 0.600000
v -0.502977 -0.167927 0.600000
v -0.502977 0.167927 -0.600000
v 0.464130 -0.167927 0.600000
v 0.464130 0.167927 -0.600000
v 0.464130 -0.167927 -0.600000
v 0.464130 0.167927 0.600000
v -0.600000 -0.167927 -0.473899
v 0.600000 0.167927 -0.473899
v -0.600000 0.167927 -0.473899
v 0.600000 -0.167927 -0.473899
v -0.502977 -0.167927 -0.473899
v -0.502977 0.167927 -0.473899
v 0.464130 0.167927 -0.473899
v 0.464130 -0.167927 -0.473899
v -0.600000 -0.167927 0.477751
v 0.600000 0.167927 0.477751
v -0.502977 -0.167927 0.477751
v -0.502977 0.167927 0.477751
v 0.464130 0.167927 0.477751
v 0.464130 -0.167927 0.477751
v -0.600000 0.167927 0.477751
v 0.600000 -0.167927 0.477751
v 0.522997 0.116348 -0.533479
v -0.560790 0.102626 0.552728
v 0.559715 0.095546 0.559460
v -0.545230 0.096046 -0.586893
v -0.502977 0.092625 -0.600000
v -0.502977 0.092625 0.600000
v 0.464130 0.092625 0.600000
v 0.464130 0.092625 -0.600000
v 0.600000 0.092625 -0.473899
v -0.600000 0.092625 -0.473899
v -0.600000 0.092625 0.477751
v 0.600000 0.092625 0.477751
v 0.522997 -0.068449 -0.533479
v 0.559715 -0.089250 0.559460
v -0.545230 -0.088750 -0.586893
v -0.502977 -0.092171 -0.600000
v -0.502977 -0.092171 0.600000
v 0.464130 -0.092171 0.600000
v 0.464130 -0.092171 -0.600000
v 0.600000 -0.092171 -0.473899
v -0.600000 -0.092171 -0.473899
v -0.600000 -0.092171 0.477751
v 0.600000 -0.092171 0.477751
v -0.549207 -0.073953 0.563475
vn 0.0847 0.9941 -0.0673
vn -0.6330 -0.0000 0.7742
vn -0.8999 -0.0000 -0.4362
vn 0.0157 -0.9997 0.0174
vn 0.8969 -0.0000 0.4422
vn 0.7489 -0.0000 -0.6627
vn -0.2963 -0.0000 -0.9551
vn -0.1562 -0.9799 0.1240
vn -0.0000 -0.0000 1.0000
vn -0.0000 1.0000 -0.0000
vn -0.0157 0.9997 -0.0174
vn 0.3905 -0.0000 0.9206
vn -0.0000 -0.0000 -1.0000
vn -0.0000 -1.0000 -0.0000
vn -0.1855 0.9621 0.1998
vn -0.0265 -0.9994 -0.0204
vn 0.6120 -0.0000 -0.7909
vn 0.1855 -0.9621 -0.1998
vn -1.0000 -0.0000 -0.0000
vn 0.0265 0.9994 0.0204
vn -0.8861 -0.0000 0.4634
vn 1.0000 -0.0000 -0.0000
vn -0.8714 -0.0133 0.4904
vn -0.6267 0.0031 0.7792
vn -0.6199 -0.0000 0.7847
vn -0.8603 -0.0000 0.5098
vt 0.854787 0.724531
vt 0.875000 0.724531
vt 0.875000 0.750000
vt 0.854787 0.750000
vt 0.568947 0.979787
vt 0.625000 0.979787
vt 0.625000 1.000000
vt 0.568947 1.000000
vt 0.568947 0.223729
vt 0.625000 0.223729
vt 0.625000 0.250000
vt 0.568947 0.250000
vt 0.346694 0.724531
vt 0.375000 0.724531
vt 0.375000 0.750000
vt 0.346694 0.750000
vt 0.568947 0.724532
vt 0.625000 0.724531
vt 0.625000 0.750000
vt 0.568947 0.750000
vt 0.568947 0.471694
vt 0.625000 0.471694
vt 0.625000 0.500000
vt 0.568947 0.500000
vt 0.625000 0.270213
vt 0.568947 0.270213
vt 0.125000 0.724531
vt 0.145213 0.724531
vt 0.145213 0.750000
vt 0.125000 0.750000
vt 0.568947 0.778306
vt 0.625000 0.778306
vt 0.653306 0.724531
vt 0.653306 0.750000
vt 0.145213 0.500000
vt 0.346694 0.500000
vt 0.346694 0.526271
vt 0.145213 0.526271
vt 0.653306 0.500000
vt 0.653306 0.526271
vt 0.625000 0.526271
vt 0.854787 0.500000
vt 0.854787 0.526271
vt 0.125000 0.500000
vt 0.125000 0.526271
vt 0.568947 0.526271
vt 0.375000 0.500000
vt 0.375000 0.526271
vt 0.568947 0.025469
vt 0.625000 0.025469
vt 0.875000 0.500000
vt 0.875000 0.526271
vt 0.568947 0.000000
vt 0.625000 0.000000
vt 0.431390 0.526271
vt 0.431390 0.724532
vt 0.431390 0.000000
vt 0.431390 0.025469
vt 0.431390 0.223729
vt 0.431390 0.500000
vt 0.431390 0.270213
vt 0.431390 0.471694
vt 0.431390 0.750000
vt 0.431390 0.778306
vt 0.431390 0.979787
vt 0.431390 0.250000
vt 0.431390 1.000000
vt 0.375000 0.979787
vt 0.375000 1.000000
vt 0.375000 0.223729
vt 0.375000 0.250000
vt 0.375000 0.471694
vt 0.375000 0.270213
vt 0.375000 0.778306
vt 0.375000 0.025469
vt 0.375000 0.000000
s 0
usemtl Material.003
f 28/1/1 31/2/1 7/3/1 10/4/1
f 38/5/2 10/6/2 7/7/2 34/8/2
f 42/9/3 19/10/3 5/11/3 36/12/3
f 30/13/4 32/14/4 4/15/4 13/16/4
f 44/17/5 26/18/5 3/19/5 35/20/5
f 40/21/6 14/22/6 1/23/6 33/24/6
f 36/12/7 5/11/7 12/25/7 37/26/7
f 25/27/8 27/28/8 11/29/8 8/30/8
f 39/31/9 16/32/9 10/6/9 38/5/9
f 29/33/10 28/1/10 10/4/10 16/34/10
f 26/18/11 29/33/11 16/34/11 3/19/11
f 35/20/12 3/19/12 16/32/12 39/31/12
f 37/26/13 12/25/13 14/22/13 40/21/13
f 27/28/14 30/13/14 13/16/14 11/29/14
f 9/35/14 15/36/14 24/37/14 21/38/14
f 1/23/15 14/39/15 23/40/15 18/41/15
f 14/39/10 12/42/10 22/43/10 23/40/10
f 6/44/16 9/35/16 21/38/16 17/45/16
f 33/24/17 1/23/17 18/41/17 41/46/17
f 15/36/18 2/47/18 20/48/18 24/37/18
f 43/49/19 31/50/19 19/10/19 42/9/19
f 12/42/20 5/51/20 19/52/20 22/43/20
f 34/53/21 7/54/21 31/50/21 43/49/21
f 21/38/14 24/37/14 30/13/14 27/28/14
f 18/41/10 23/40/10 29/33/10 26/18/10
f 23/40/10 22/43/10 28/1/10 29/33/10
f 17/45/14 21/38/14 27/28/14 25/27/14
f 41/46/22 18/41/22 26/18/22 44/17/22
f 24/37/14 20/48/14 32/14/14 30/13/14
f 22/43/10 19/52/10 31/2/10 28/1/10
f 52/55/22 41/46/22 44/17/22 55/56/22
f 56/57/23 34/53/23 43/49/23 54/58/23
f 54/58/19 43/49/19 42/9/19 53/59/19
f 45/60/17 33/24/17 41/46/17 52/55/17
f 48/61/13 37/26/13 40/21/13 51/62/13
f 46/63/12 35/20/12 39/31/12 50/64/12
f 50/64/9 39/31/9 38/5/9 49/65/9
f 47/66/7 36/12/7 37/26/7 48/61/7
f 51/62/6 40/21/6 33/24/6 45/60/6
f 55/56/5 44/17/5 35/20/5 46/63/5
f 53/59/3 42/9/3 36/12/3 47/66/3
f 49/65/24 38/5/24 34/8/24 56/67/24
f 11/68/25 49/65/25 56/67/25 8/69/25
f 17/70/3 53/59/3 47/66/3 6/71/3
f 32/14/5 55/56/5 46/63/5 4/15/5
f 15/72/6 51/62/6 45/60/6 2/47/6
f 6/71/7 47/66/7 48/61/7 9/73/7
f 13/74/9 50/64/9 49/65/9 11/68/9
f 4/15/12 46/63/12 50/64/12 13/74/12
f 9/73/13 48/61/13 51/62/13 15/72/13
f 2/47/17 45/60/17 52/55/17 20/48/17
f 25/75/19 54/58/19 53/59/19 17/70/19
f 8/76/26 56/57/26 54/58/26 25/75/26
f 20/48/22 52/55/22 55/56/22 32/14/22
o Cylinder
v 0.000000 -0.054418 -0.369709
v 0.000000 0.332789 -0.369709
v 0.072127 -0.054418 -0.362605
v 0.072127 0.332789 -0.362605
v 0.141481 -0.054418 -0.341566
v 0.141481 0.332789 -0.341566
v 0.205399 -0.054418 -0.307401
v 0.205399 0.332789 -0.307401
v 0.261423 -0.054418 -0.261423
v 0.261423 0.332789 -0.261423
v 0.307401 -0.054418 -0.205399
v 0.307401 0.332789 -0.205399
v 0.341566 -0.054418 -0.141481
v 0.341566 0.332789 -0.141481
v 0.362605 -0.054418 -0.072127
v 0.362605 0.332789 -0.072127
v 0.369709 -0.054418 -0.000000
v 0.369709 0.332789 -0.000000
v 0.362605 -0.054418 0.072127
v 0.362605 0.332789 0.072127
v 0.341566 -0.054418 0.141481
v 0.341566 0.332789 0.141481
v 0.307401 -0.054418 0.205399
v 0.307401 0.332789 0.205399
v 0.261423 -0.054418 0.261423
v 0.261423 0.332789 0.261423
v 0.205399 -0.054418 0.307401
v 0.205399 0.332789 0.307401
v 0.141481 -0.054418 0.341566
v 0.141481 0.332789 0.341566
v 0.072127 -0.054418 0.362605
v 0.072127 0.332789 0.362605
v 0.000000 -0.054418 0.369709
v 0.000000 0.332789 0.369709
v -0.072127 -0.054418 0.362605
v -0.072127 0.332789 0.362605
v -0.141481 -0.054418 0.341566
v -0.141481 0.332789 0.341566
v -0.205399 -0.054418 0.307401
v -0.205399 0.332789 0.307401
v -0.261423 -0.054418 0.261423
v -0.261423 0.332789 0.261423
v -0.307401 -0.054418 0.205399
v -0.307401 0.332789 0.205399
v -0.341566 -0.054418 0.141481
v -0.341566 0.332789 0.141481
v -0.362605 -0.054418 0.072127
v -0.362605 0.332789 0.072127
v -0.369709 -0.054418 -0.000000
v -0.369709 0.332789 -0.000000
v -0.362605 -0.054418 -0.072127
v -0.362605 0.332789 -0.072127
v -0.341566 -0.054418 -0.141481
v -0.341566 0.332789 -0.141481
v -0.307401 -0.054418 -0.205399
v -0.307401 0.332789 -0.205399
v -0.261423 -0.054418 -0.261423
v -0.261423 0.332789 -0.261423
v -0.205399 -0.054418 -0.307401
v -0.205399 0.332789 -0.307401
v -0.141481 -0.054418 -0.341566
v -0.141481 0.332789 -0.341566
v -0.072127 -0.054418 -0.362605
v -0.072127 0.332789 -0.362605
vn 0.0980 -0.0000 -0.9952
vn 0.2903 -0.0000 -0.9569
vn 0.4714 -0.0000 -0.8819
vn 0.6344 -0.0000 -0.7730
vn 0.7730 -0.0000 -0.6344
vn 0.8819 -0.0000 -0.4714
vn 0.9569 -0.0000 -0.2903
vn 0.9952 -0.0000 -0.0980
vn 0.9952 -0.0000 0.0980
vn 0.9569 -0.0000 0.2903
vn 0.8819 -0.0000 0.4714
vn 0.7730 -0.0000 0.6344
vn 0.6344 -0.0000 0.7730
vn 0.4714 -0.0000 0.8819
vn 0.2903 -0.0000 0.9569
vn 0.0980 -0.0000 0.9952
vn -0.0980 -0.0000 0.9952
vn -0.2903 -0.0000 0.9569
vn -0.4714 -0.0000 0.8819
vn -0.6344 -0.0000 0.7730
vn -0.7730 -0.0000 0.6344
vn -0.8819 -0.0000 0.4714
vn -0.9569 -0.0000 0.2903
vn -0.9952 -0.0000 0.0980
vn -0.9952 -0.0000 -0.0980
vn -0.9569 -0.0000 -0.2903
vn -0.8819 -0.0000 -0.4714
vn -0.7730 -0.0000 -0.6344
vn -0.6344 -0.0000 -0.7730
vn -0.4714 -0.0000 -0.8819
vn -0.0000 1.0000 -0.0000
vn -0.2903 -0.0000 -0.9569
vn -0.0980 -0.0000 -0.9952
vn -0.0000 -1.0000 -0.0000
vt 1.000000 0.500000
vt 1.000000 1.000000
vt 0.968750 1.000000
vt 0.968750 0.500000
vt 0.937500 1.000000
vt 0.937500 0.500000
vt 0.906250 1.000000
vt 0.906250 0.500000
vt 0.875000 1.000000
vt 0.875000 0.500000
vt 0.843750 1.000000
vt 0.843750 0.500000
vt 0.812500 1.000000
vt 0.812500 0.500000
vt 0.781250 1.000000
vt 0.781250 0.500000
vt 0.750000 1.000000
vt 0.750000 0.500000
vt 0.718750 1.000000
vt 0.718750 0.500000
vt 0.687500 1.000000
vt 0.687500 0.500000
vt 0.656250 1.000000
vt 0.656250 0.500000
vt 0.625000 1.000000
vt 0.625000 0.500000
vt 0.593750 1.000000
vt 0.593750 0.500000
vt 0.562500 1.000000
vt 0.562500 0.500000
vt 0.531250 1.000000
vt 0.531250 0.500000
vt 0.500000 1.000000
vt 0.500000 0.500000
vt 0.468750 1.000000
vt 0.468750 0.500000
vt 0.437500 1.000000
vt 0.437500 0.500000
vt 0.406250 1.000000
vt 0.406250 0.500000
vt 0.375000 1.000000
vt 0.375000 0.500000
vt 0.343750 1.000000
vt 0.343750 0.500000
vt 0.312500 1.000000
vt 0.312500 0.500000
vt 0.281250 1.000000
vt 0.281250 0.500000
vt 0.250000 1.000000
vt 0.250000 0.500000
vt 0.218750 1.000000
vt 0.218750 0.500000
vt 0.187500 1.000000
vt 0.187500 0.500000
vt 0.156250 1.000000
vt 0.156250 0.500000
vt 0.125000 1.000000
vt 0.125000 0.500000
vt 0.093750 1.000000
vt 0.093750 0.500000
vt 0.062500 1.000000
vt 0.062500 0.500000
vt 0.296822 0.485388
vt 0.250000 0.490000
vt 0.203178 0.485388
vt 0.158156 0.471731
vt 0.116663 0.449553
vt 0.080294 0.419706
vt 0.050447 0.383337
vt 0.028269 0.341844
vt 0.014612 0.296822
vt 0.010000 0.250000
vt 0.014612 0.203178
vt 0.028269 0.158156
vt 0.050447 0.116663
vt 0.080294 0.080294
vt 0.116663 0.050447
vt 0.158156 0.028269
vt 0.203178 0.014612
vt 0.250000 0.010000
vt 0.296822 0.014612
vt 0.341844 0.028269
vt 0.383337 0.050447
vt 0.419706 0.080294
vt 0.449553 0.116663
vt 0.471731 0.158156
vt 0.485388 0.203178
vt 0.490000 0.250000
vt 0.485388 0.296822
vt 0.471731 0.341844
vt 0.449553 0.383337
vt 0.419706 0.419706
vt 0.383337 0.449553
vt 0.341844 0.471731
vt 0.031250 1.000000
vt 0.031250 0.500000
vt 0.000000 1.000000
vt 0.000000 0.500000
vt 0.750000 0.490000
vt 0.796822 0.485388
vt 0.841844 0.471731
vt 0.883337 0.449553
vt 0.919706 0.419706
vt 0.949553 0.383337
vt 0.971731 0.341844
vt 0.985388 0.296822
vt 0.990000 0.250000
vt 0.985388 0.203178
vt 0.971731 0.158156
vt 0.949553 0.116663
vt 0.919706 0.080294
vt 0.883337 0.050447
vt 0.841844 0.028269
vt 0.796822 0.014612
vt 0.750000 0.010000
vt 0.703178 0.014612
vt 0.658156 0.028269
vt 0.616663 0.050447
vt 0.580294 0.080294
vt 0.550447 0.116663
vt 0.528269 0.158156
vt 0.514612 0.203178
vt 0.510000 0.250000
vt 0.514612 0.296822
vt 0.528269 0.341844
vt 0.550447 0.383337
vt 0.580294 0.419706
vt 0.616663 0.449553
vt 0.658156 0.471731
vt 0.703178 0.485388
s 0
usemtl Material.004
f 57/77/27 58/78/27 60/79/27 59/80/27
f 59/80/28 60/79/28 62/81/28 61/82/28
f 61/82/29 62/81/29 64/83/29 63/84/29
f 63/84/30 64/83/30 66/85/30 65/86/30
f 65/86/31 66/85/31 68/87/31 67/88/31
f 67/88/32 68/87/32 70/89/32 69/90/32
f 69/90/33 70/89/33 72/91/33 71/92/33
f 71/92/34 72/91/34 74/93/34 73/94/34
f 73/94/35 74/93/35 76/95/35 75/96/35
f 75/96/36 76/95/36 78/97/36 77/98/36
f 77/98/37 78/97/37 80/99/37 79/100/37
f 79/100/38 80/99/38 82/101/38 81/102/38
f 81/102/39 82/101/39 84/103/39 83/104/39
f 83/104/40 84/103/40 86/105/40 85/106/40
f 85/106/41 86/105/41 88/107/41 87/108/41
f 87/108/42 88/107/42 90/109/42 89/110/42
f 89/110/43 90/109/43 92/111/43 91/112/43
f 91/112/44 92/111/44 94/113/44 93/114/44
f 93/114/45 94/113/45 96/115/45 95/116/45
f 95/116/46 96/115/46 98/117/46 97/118/46
f 97/118/47 98/117/47 100/119/47 99/120/47
f 99/120/48 100/119/48 102/121/48 101/122/48
f 101/122/49 102/121/49 104/123/49 103/124/49
f 103/124/50 104/123/50 106/125/50 105/126/50
f 105/126/51 106/125/51 108/127/51 107/128/51
f 107/128/52 108/127/52 110/129/52 109/130/52
f 109/130/53 110/129/53 112/131/53 111/132/53
f 111/132/54 112/131/54 114/133/54 113/134/54
f 113/134/55 114/133/55 116/135/55 115/136/55
f 115/136/56 116/135/56 118/137/56 117/138/56
f 60/139/57 58/140/57 120/141/57 118/142/57 116/143/57 114/144/57 112/145/57 110/146/57 108/147/57 106/148/57 104/149/57 102/150/57 100/151/57 98/152/57 96/153/57 94/154/57 92/155/57 90/156/57 88/157/57 86/158/57 84/159/57 82/160/57 80/161/57 78/162/57 76/163/57 74/164/57 72/165/57 70/166/57 68/167/57 66/168/57 64/169/57 62/170/57
f 117/138/58 118/137/58 120/171/58 119/172/58
f 119/172/59 120/171/59 58/173/59 57/174/59
f 57/175/60 59/176/60 61/177/60 63/178/60 65/179/60 67/180/60 69/181/60 71/182/60 73/183/60 75/184/60 77/185/60 79/186/60 81/187/60 83/188/60 85/189/60 87/190/60 89/191/60 91/192/60 93/193/60 95/194/60 97/195/60 99/196/60 101/197/60 103/198/60 105/199/60 107/200/60 109/201/60 111/202/60 113/203/60 115/204/60 117/205/60 119/206/60
